<svg xmlns="http://www.w3.org/2000/svg" xmlns:xlink="http://www.w3.org/1999/xlink" style="enable-background:new 0 0 512 512" x="0" y="0" version="1.1" viewBox="0 0 512 512" xml:space="preserve"><style type="text/css">.st3{fill:url(#SVGID_1_)}.st4{fill:url(#SVGID_2_)}.st5{fill:#2beda7}.st6{fill:url(#SVGID_3_)}.st7{fill:url(#SVGID_4_)}.st8{fill:url(#SVGID_5_)}.st9{fill:url(#SVGID_6_)}.st10{fill:url(#SVGID_7_)}.st11{fill:url(#SVGID_8_)}</style><g id="Layer_1"><g><g><g><linearGradient id="SVGID_1_" x1="443.826" x2="443.826" y1="140.223" y2="308.672" gradientUnits="userSpaceOnUse"><stop style="stop-color:#2beda7" offset="0"/><stop style="stop-color:#018afd" offset="1"/></linearGradient><polygon points="429.8 140.2 429.8 292.5 457.9 308.7 457.9 156.4" class="st3"/><linearGradient id="SVGID_2_" x1="67.631" x2="67.631" y1="140.227" y2="308.682" gradientUnits="userSpaceOnUse"><stop style="stop-color:#2beda7" offset="0"/><stop style="stop-color:#018afd" offset="1"/></linearGradient><polygon points="53.6 308.7 81.7 292.5 81.7 140.2 53.6 156.4" class="st4"/></g><g><polygon points="191.2 307.2 320.3 381.7 320.3 349.3 199.4 279.5 191.2 284.3 191.2 284.3" class="st5"/><path d="M327.7,424.9l-136.5-78.8v32.4l36.5,21.1l-43.9,25.3c-3,1.7-3,6,0,7.7l21.4,12.4l50.5-29.2l50.5,29.2 l21.4-12.4C330.7,430.9,330.7,426.6,327.7,424.9z" class="st5"/></g><g><linearGradient id="SVGID_3_" x1="443.826" x2="443.826" y1="214.791" y2="370.409" gradientUnits="userSpaceOnUse"><stop style="stop-color:#2beda7" offset="0"/><stop style="stop-color:#018afd" offset="1"/></linearGradient><path d="M429.8,231v135c0,3.4,3.7,5.5,6.6,3.8l19.2-11.1c1.4-0.8,2.2-2.3,2.2-3.8V214.8L429.8,231z" class="st6"/><linearGradient id="SVGID_4_" x1="382.06" x2="382.06" y1="250.451" y2="406.068" gradientUnits="userSpaceOnUse"><stop style="stop-color:#2beda7" offset="0"/><stop style="stop-color:#018afd" offset="1"/></linearGradient><path d="M374.7,405.5l18.1-10.5c2.1-1.2,3.3-3.4,3.3-5.8V250.5L368,266.7v135C368,405,371.7,407.2,374.7,405.5z" class="st7"/><linearGradient id="SVGID_5_" x1="320.296" x2="320.296" y1="286.108" y2="444.963" gradientUnits="userSpaceOnUse"><stop style="stop-color:#2beda7" offset="0"/><stop style="stop-color:#018afd" offset="1"/></linearGradient><path d="M306.3,445l25.9-14.9c1.4-0.8,2.2-2.3,2.2-3.8V286.1l-28.1,16.2V445z" class="st8"/><linearGradient id="SVGID_6_" x1="191.176" x2="191.176" y1="286.108" y2="444.961" gradientUnits="userSpaceOnUse"><stop style="stop-color:#2beda7" offset="0"/><stop style="stop-color:#018afd" offset="1"/></linearGradient><path d="M179.4,430l25.9,14.9V302.3l-28.1-16.2v140.1C177.1,427.8,178,429.2,179.4,430z" class="st9"/><linearGradient id="SVGID_7_" x1="129.411" x2="129.411" y1="250.45" y2="406.068" gradientUnits="userSpaceOnUse"><stop style="stop-color:#2beda7" offset="0"/><stop style="stop-color:#018afd" offset="1"/></linearGradient><path d="M118.7,395l18.1,10.5c3,1.7,6.6-0.4,6.6-3.8v-135l-28.1-16.2v138.8C115.4,391.6,116.6,393.8,118.7,395z" class="st10"/><linearGradient id="SVGID_8_" x1="67.646" x2="67.646" y1="214.789" y2="370.407" gradientUnits="userSpaceOnUse"><stop style="stop-color:#2beda7" offset="0"/><stop style="stop-color:#018afd" offset="1"/></linearGradient><path d="M56.9,359.4L75,369.8c3,1.7,6.6-0.4,6.6-3.8V231l-28.1-16.2v138.8C53.6,356,54.9,358.2,56.9,359.4z" class="st11"/></g><g><path d="M457.9,156.4l-28.1-16.2l-50.5,29.2L345.6,150l43.9-25.3c3-1.7,3-6,0-7.7l-18.1-10.5 c-2.1-1.2-4.6-1.2-6.6,0l-47.2,27.3l-33.7-19.4L327.7,89c3-1.7,3-6,0-7.7l-18.1-10.5c-2.1-1.2-4.6-1.2-6.6,0l-47.2,27.3 l-47.2-27.3c-2.1-1.2-4.6-1.2-6.6,0l-18.1,10.5c-3,1.7-3,6,0,7.7l246,142l28.1-16.2l-50.5-29.2L457.9,156.4z" class="st5"/><path d="M140.1,106.5L122,116.9c-3,1.7-3,6,0,7.7l246,142l28.1-16.2l-249.3-144 C144.7,105.3,142.2,105.3,140.1,106.5z" class="st5"/><polygon points="53.6 156.4 104.2 185.6 53.6 214.8 81.7 231 132.2 201.8 165.9 221.3 115.4 250.5 143.4 266.7 194 237.5 227.7 256.9 177.1 286.1 205.2 302.3 255.7 273.1 306.3 302.3 334.3 286.1 81.7 140.2" class="st5"/></g></g></g></g></svg>