<svg xmlns="http://www.w3.org/2000/svg" xmlns:xlink="http://www.w3.org/1999/xlink" style="enable-background:new 0 0 1105.4 233.7" x="0" y="0" version="1.1" viewBox="0 0 1105.4 233.7" xml:space="preserve"><style type="text/css">.st1{fill:#6d6e71}.st3{fill:url(#SVGID_1_)}.st4{fill:url(#SVGID_2_)}.st5{fill:#2beda7}.st6{fill:url(#SVGID_3_)}.st7{fill:url(#SVGID_4_)}.st8{fill:url(#SVGID_5_)}.st9{fill:url(#SVGID_6_)}.st10{fill:url(#SVGID_7_)}.st11{fill:url(#SVGID_8_)}</style><g id="Layer_1"><g><path d="M300.7,162.5v-97c0-4.6,3.9-8.5,8.7-8.5c4.6,0,8.4,3.9,8.4,8.5v91.1h44.8c4.1,0,7.7,3.2,7.7,7.3c0,4.3-3.6,7.7-7.7,7.7 h-52.7C303.9,171.5,300.7,168.3,300.7,162.5z"/><path d="M403.5,163.9V65.5c0-4.6,3.9-8.5,8.7-8.5c4.6,0,8.4,3.9,8.4,8.5v98.4c0,4.6-3.8,8.5-8.4,8.5 C407.4,172.4,403.5,168.5,403.5,163.9z"/><path d="M538.7,168l-60.4-83.7v79.6c0,4.6-3.8,8.5-8.4,8.5c-4.8,0-8.7-3.9-8.7-8.5V68.2c0-6.1,4.9-11.3,11.3-11.3 c3.6,0,7,1.7,9,4.6l59.2,81.5V65.5c0-4.6,3.8-8.5,8.4-8.5c4.8,0,8.7,3.9,8.7,8.5v96.3c0,5.8-4.8,10.6-10.6,10.6 C543.7,172.4,540.6,170.9,538.7,168z"/><path d="M683.5,164.2c0,4.4-3.4,8.2-7.8,8.2c-2.2,0-4.3-0.5-6-2.4l-43.3-47.6L615.4,134v29.8c0,4.6-3.8,8.5-8.5,8.5 c-4.6,0-8.5-3.9-8.5-8.5V65.5c0-4.6,3.9-8.5,8.5-8.5c4.8,0,8.5,3.9,8.5,8.5v49.1l50.1-55.1c1.7-1.9,3.8-2.6,6-2.6 c4.3,0,8,3.4,8,7.8c0,2-0.5,3.9-2.2,5.5l-39.6,42.1l43.5,46.4C682.6,160.3,683.5,162.3,683.5,164.2z"/><path d="M717.9,162.5V66.8c0-5.8,3.2-9,9.2-9h60.4c4.1,0,7.7,3.4,7.7,7.7c0,4.1-3.6,7.3-7.7,7.3H735v33.3h51.3 c4.1,0,7.7,3.2,7.7,7.3c0,4.3-3.6,7.7-7.7,7.7H735v35.5h52.5c4.1,0,7.7,3.2,7.7,7.3c0,4.3-3.6,7.7-7.7,7.7h-60.4 C721.2,171.5,717.9,168.3,717.9,162.5z"/><path d="M915.7,164.5c0,3.6-3.2,7.8-8,7.8c-2.9,0-5.6-1.4-7.2-3.6l-28.5-41.1h-24v36.2c0,4.6-3.8,8.5-8.4,8.5 c-4.8,0-8.7-3.9-8.7-8.5v-97c0-5.8,3.2-9,9.2-9h38.7c21.7,0,36.5,14,36.5,35c0,19.1-11.9,30-25.4,32.7l24,33.8 C915,160.5,915.7,161.8,915.7,164.5z M848,112.7h28.6c12.3,0,21.1-8,21.1-20c0-11.9-8.9-20-21.1-20H848V112.7z"/><path d="M951.7,162.5V66.8c0-5.8,3.2-9,9.2-9h31.4c35.5,0,59,24.2,59,57c0,32.9-23.5,56.8-59,56.8h-31.4 C954.9,171.5,951.7,168.3,951.7,162.5z M992.3,156.5c26.3,0,41.4-18.8,41.4-41.8c0-23.4-14.7-41.9-41.4-41.9h-23.5v83.7H992.3z"/></g><g><path d="M301.8,228.3V195c0-1.6,0.9-2.5,2.5-2.5h20.4c1.1,0,2.2,1,2.2,2.1c0,1.1-1,2.1-2.2,2.1h-18.2v12.2h17.8 c1.1,0,2.2,1,2.2,2.1c0,1.1-1,2.1-2.2,2.1h-17.8v15.1c0,1.2-1.1,2.3-2.3,2.3C302.8,230.6,301.8,229.5,301.8,228.3z" class="st1"/><path d="M365.1,228.4c0,1-0.9,2.2-2.3,2.2c-0.8,0-1.5-0.3-2-1l-9.9-14.3h-8.3v12.9c0,1.2-1.1,2.3-2.3,2.3 c-1.4,0-2.4-1.1-2.4-2.3V195c0-1.6,0.9-2.5,2.5-2.5h12.7c6.9,0,11.8,4.4,11.8,11.4c0,6.5-4.2,10.1-9,10.9l8.7,12.1 C364.9,227.3,365.1,227.7,365.1,228.4z M342.7,211.2h9.9c4.5,0,7.5-3,7.5-7.3c0-4.3-3.1-7.2-7.5-7.2h-9.9V211.2z" class="st1"/><path d="M394.7,191.9c11.2,0,18.8,8.4,18.8,19.5c0,11.2-7.6,19.5-18.8,19.5c-11.2,0-18.8-8.4-18.8-19.5 C375.9,200.3,383.4,191.9,394.7,191.9z M394.7,196.1c-8.5,0-13.9,6.5-13.9,15.4c0,8.8,5.4,15.4,13.9,15.4 c8.4,0,13.9-6.6,13.9-15.4C408.5,202.6,403.1,196.1,394.7,196.1z" class="st1"/><path d="M458.1,228.3v-29.4l-12.5,30.7c-0.2,0.6-0.7,1-1.3,1c-0.6,0-1.1-0.3-1.3-1l-12.5-30.7v29.4 c0,1.2-1.1,2.3-2.3,2.3c-1.4,0-2.4-1.1-2.4-2.3v-32c0-2.2,1.8-4,4-4c1.7,0,3.1,1,3.7,2.5l10.8,26.7l10.9-26.7 c0.6-1.5,2-2.5,3.7-2.5c2.2,0,4,1.8,4,4v32c0,1.2-1,2.3-2.4,2.3C459.2,230.6,458.1,229.5,458.1,228.3z" class="st1"/><path d="M496.3,227.9V195c0-1.6,0.9-2.5,2.5-2.5h14.3c6.6,0,10.6,4,10.6,9.6c0,4.8-3.2,7.9-6.6,8.7 c4,0.6,7.4,4.8,7.4,9.3c0,6.1-4,10.2-10.9,10.2h-14.7C497.2,230.3,496.3,229.4,496.3,227.9z M512.4,208.9c4.2,0,6.5-2.6,6.5-6.1 c0-3.4-2.3-6.1-6.5-6.1H501v12.2H512.4z M512.6,226.2c4.4,0,7-2.5,7-6.5c0-3.5-2.4-6.5-7-6.5H501v13H512.6z" class="st1"/><path d="M537,194.7c0-1.2,1-2.3,2.4-2.3c1.3,0,2.3,1.1,2.3,2.3v20.9c0,6.9,3.7,11.3,10.7,11.3c7,0,10.7-4.4,10.7-11.3 v-20.9c0-1.2,1-2.3,2.4-2.3c1.3,0,2.3,1.1,2.3,2.3v21c0,9.4-5.2,15.4-15.4,15.4c-10.3,0-15.4-6.1-15.4-15.4V194.7z" class="st1"/><path d="M598.9,191.9c11.2,0,18.8,8.4,18.8,19.5c0,11.2-7.6,19.5-18.8,19.5c-11.2,0-18.8-8.4-18.8-19.5 C580.2,200.3,587.7,191.9,598.9,191.9z M598.9,196.1c-8.5,0-13.9,6.5-13.9,15.4c0,8.8,5.4,15.4,13.9,15.4 c8.4,0,13.9-6.6,13.9-15.4C612.8,202.6,607.4,196.1,598.9,196.1z" class="st1"/><path d="M656.1,195.8l-12.6,18.5v13.9c0,1.2-1.1,2.3-2.4,2.3c-1.3,0-2.3-1.1-2.3-2.3v-13.9l-12.7-18.5 c-0.3-0.3-0.4-0.9-0.4-1.3c0-1.2,1-2.3,2.3-2.3c0.8,0,1.5,0.3,1.9,1l11.2,16.8l11.2-16.8c0.4-0.6,1.1-1,1.9-1c1.2,0,2.3,1,2.3,2.3 C656.5,195,656.4,195.5,656.1,195.8z" class="st1"/><path d="M696,228.1c0,1.4-1.1,2.4-2.4,2.4c-1,0-1.9-0.6-2.3-1.5l-2.7-7.1h-19.4l-2.7,7.1c-0.3,0.9-1.2,1.5-2.2,1.5 c-1.4,0-2.4-1.1-2.4-2.4c0-0.3,0.1-0.6,0.2-1l13-32.3c0.6-1.5,2.1-2.6,3.9-2.6s3.2,1.1,3.8,2.6l13.1,32.3 C695.9,227.5,696,227.9,696,228.1z M687.1,217.8l-8.1-21l-8.1,21H687.1z" class="st1"/><path d="M733.1,229.4l-21.3-29.5v28.4c0,1.2-1.1,2.3-2.3,2.3c-1.4,0-2.4-1.1-2.4-2.3v-32.9c0-1.6,1.4-3.1,3.1-3.1 c1,0,1.9,0.5,2.5,1.2l21,28.8v-27.8c0-1.2,1.1-2.3,2.3-2.3c1.4,0,2.4,1.1,2.4,2.3v33c0,1.6-1.3,2.9-2.9,2.9 C734.5,230.6,733.6,230.1,733.1,229.4z" class="st1"/><path d="M761.5,228.3v-31.5h-10.1c-1.1,0-2.1-1-2.1-2.1c0-1.1,1-2.1,2.1-2.1h24.9c1.1,0,2.1,1,2.1,2.1 c0,1.1-1,2.1-2.1,2.1h-10.1v31.5c0,1.2-1,2.3-2.3,2.3S761.5,229.5,761.5,228.3z" class="st1"/></g><g><g><linearGradient id="SVGID_1_" x1="239.749" x2="239.749" y1="43.139" y2="146.622" gradientUnits="userSpaceOnUse"><stop style="stop-color:#2beda7" offset="0"/><stop style="stop-color:#018afd" offset="1"/></linearGradient><polygon points="231.1 43.1 231.1 136.7 248.4 146.6 248.4 53.1" class="st3"/><linearGradient id="SVGID_2_" x1="8.642" x2="8.642" y1="43.142" y2="146.628" gradientUnits="userSpaceOnUse"><stop style="stop-color:#2beda7" offset="0"/><stop style="stop-color:#018afd" offset="1"/></linearGradient><polygon points="0 146.6 17.3 136.7 17.3 43.1 0 53.1" class="st4"/></g><g><polygon points="84.5 145.7 163.9 191.5 163.9 171.6 89.6 128.7 84.5 131.6 84.5 131.7" class="st5"/><path d="M168.4,218l-83.9-48.4v19.9l22.4,12.9L80,218c-1.8,1-1.8,3.7,0,4.7l13.2,7.6l31-17.9l31,17.9l13.2-7.6 C170.2,221.7,170.2,219.1,168.4,218z" class="st5"/></g><g><linearGradient id="SVGID_3_" x1="239.749" x2="239.749" y1="88.949" y2="184.549" gradientUnits="userSpaceOnUse"><stop style="stop-color:#2beda7" offset="0"/><stop style="stop-color:#018afd" offset="1"/></linearGradient><path d="M231.1,98.9v82.9c0,2.1,2.3,3.4,4.1,2.4l11.8-6.8c0.8-0.5,1.4-1.4,1.4-2.4V88.9L231.1,98.9z" class="st6"/><linearGradient id="SVGID_4_" x1="201.805" x2="201.805" y1="110.855" y2="206.455" gradientUnits="userSpaceOnUse"><stop style="stop-color:#2beda7" offset="0"/><stop style="stop-color:#018afd" offset="1"/></linearGradient><path d="M197.3,206.1l11.1-6.4c1.3-0.7,2-2.1,2-3.5v-85.3l-17.2,10v82.9C193.2,205.8,195.4,207.1,197.3,206.1z" class="st7"/><linearGradient id="SVGID_5_" x1="163.861" x2="163.861" y1="132.761" y2="230.35" gradientUnits="userSpaceOnUse"><stop style="stop-color:#2beda7" offset="0"/><stop style="stop-color:#018afd" offset="1"/></linearGradient><path d="M155.2,230.3l15.9-9.2c0.8-0.5,1.4-1.4,1.4-2.4v-86.1l-17.2,10V230.3z" class="st8"/><linearGradient id="SVGID_6_" x1="84.539" x2="84.539" y1="132.761" y2="230.348" gradientUnits="userSpaceOnUse"><stop style="stop-color:#2beda7" offset="0"/><stop style="stop-color:#018afd" offset="1"/></linearGradient><path d="M77.3,221.2l15.9,9.2v-87.6l-17.2-10v86.1C75.9,219.8,76.4,220.7,77.3,221.2z" class="st9"/><linearGradient id="SVGID_7_" x1="46.595" x2="46.595" y1="110.855" y2="206.455" gradientUnits="userSpaceOnUse"><stop style="stop-color:#2beda7" offset="0"/><stop style="stop-color:#018afd" offset="1"/></linearGradient><path d="M40,199.7l11.1,6.4c1.8,1,4.1-0.3,4.1-2.4v-82.9l-17.2-10v85.3C38,197.6,38.7,198.9,40,199.7z" class="st10"/><linearGradient id="SVGID_8_" x1="8.651" x2="8.651" y1="88.947" y2="184.548" gradientUnits="userSpaceOnUse"><stop style="stop-color:#2beda7" offset="0"/><stop style="stop-color:#018afd" offset="1"/></linearGradient><path d="M2.1,177.8l11.1,6.4c1.8,1,4.1-0.3,4.1-2.4V98.9L0,88.9v85.3C0,175.7,0.8,177,2.1,177.8z" class="st11"/></g><g><path d="M248.4,53.1l-17.3-10l-31,17.9l-20.7-11.9l27-15.6c1.8-1,1.8-3.7,0-4.7l-11.1-6.4c-1.3-0.7-2.8-0.7-4.1,0 l-29,16.7l-20.7-11.9l27-15.6c1.8-1,1.8-3.7,0-4.7l-11.1-6.4c-1.3-0.7-2.8-0.7-4.1,0l-29,16.7l-29-16.8c-1.3-0.7-2.8-0.7-4.1,0 L80,6.9c-1.8,1-1.8,3.7,0,4.7l151.1,87.3l17.2-10l-31-17.9L248.4,53.1z" class="st5"/><path d="M53.2,22.4L42,28.8c-1.8,1-1.8,3.7,0,4.7l151.1,87.3l17.3-10L57.3,22.4C56,21.7,54.4,21.7,53.2,22.4z" class="st5"/><polygon points="0 53.1 31.1 71 0 89 17.3 98.9 48.3 81 69 92.9 38 110.9 55.2 120.8 86.3 102.9 106.9 114.8 75.9 132.8 93.2 142.7 124.2 124.8 155.2 142.7 172.5 132.8 17.3 43.1" class="st5"/></g></g></g></svg>