<svg xmlns="http://www.w3.org/2000/svg" xmlns:xlink="http://www.w3.org/1999/xlink" style="enable-background:new 0 0 512 512" x="0" y="0" version="1.1" viewBox="0 0 512 512" xml:space="preserve"><style type="text/css">.st3{fill:url(#SVGID_1_)}.st4{fill:url(#SVGID_2_)}.st5{fill:#2beda7}.st6{fill:url(#SVGID_3_)}.st7{fill:url(#SVGID_4_)}.st8{fill:url(#SVGID_5_)}.st9{fill:url(#SVGID_6_)}.st10{fill:url(#SVGID_7_)}.st11{fill:url(#SVGID_8_)}</style><g id="Layer_1"><g><g><g><linearGradient id="SVGID_1_" x1="404.285" x2="404.285" y1="164.159" y2="297.197" gradientUnits="userSpaceOnUse"><stop style="stop-color:#2beda7" offset="0"/><stop style="stop-color:#018afd" offset="1"/></linearGradient><polygon points="393.2 164.2 393.2 284.4 415.4 297.2 415.4 177" class="st3"/><linearGradient id="SVGID_2_" x1="107.172" x2="107.172" y1="164.162" y2="297.205" gradientUnits="userSpaceOnUse"><stop style="stop-color:#2beda7" offset="0"/><stop style="stop-color:#018afd" offset="1"/></linearGradient><polygon points="96.1 297.2 118.3 284.4 118.3 164.2 96.1 177" class="st4"/></g><g><polygon points="204.7 296 306.7 354.9 306.7 329.3 211.3 274.2 204.7 277.9 204.7 278" class="st5"/><path d="M312.6,389l-107.8-62.3v25.6l28.8,16.6l-34.7,20c-2.3,1.3-2.3,4.7,0,6.1l16.9,9.8l39.9-23l39.9,23l16.9-9.8 C314.9,393.7,314.9,390.4,312.6,389z" class="st5"/></g><g><linearGradient id="SVGID_3_" x1="404.285" x2="404.285" y1="223.052" y2="345.956" gradientUnits="userSpaceOnUse"><stop style="stop-color:#2beda7" offset="0"/><stop style="stop-color:#018afd" offset="1"/></linearGradient><path d="M393.2,235.9v106.6c0,2.7,2.9,4.4,5.2,3l15.2-8.8c1.1-0.6,1.7-1.8,1.7-3V223.1L393.2,235.9z" class="st6"/><linearGradient id="SVGID_4_" x1="355.504" x2="355.504" y1="251.215" y2="374.12" gradientUnits="userSpaceOnUse"><stop style="stop-color:#2beda7" offset="0"/><stop style="stop-color:#018afd" offset="1"/></linearGradient><path d="M349.7,373.6l14.3-8.3c1.6-0.9,2.6-2.7,2.6-4.5V251.2L344.4,264v106.6C344.4,373.3,347.3,375,349.7,373.6z" class="st7"/><linearGradient id="SVGID_5_" x1="306.723" x2="306.723" y1="279.377" y2="404.839" gradientUnits="userSpaceOnUse"><stop style="stop-color:#2beda7" offset="0"/><stop style="stop-color:#018afd" offset="1"/></linearGradient><path d="M295.6,404.8l20.4-11.8c1.1-0.6,1.7-1.8,1.7-3V279.4l-22.2,12.8V404.8z" class="st8"/><linearGradient id="SVGID_6_" x1="204.746" x2="204.746" y1="279.377" y2="404.837" gradientUnits="userSpaceOnUse"><stop style="stop-color:#2beda7" offset="0"/><stop style="stop-color:#018afd" offset="1"/></linearGradient><path d="M195.4,393l20.4,11.8V292.2l-22.2-12.8V390C193.7,391.3,194.3,392.4,195.4,393z" class="st9"/><linearGradient id="SVGID_7_" x1="155.965" x2="155.965" y1="251.214" y2="374.119" gradientUnits="userSpaceOnUse"><stop style="stop-color:#2beda7" offset="0"/><stop style="stop-color:#018afd" offset="1"/></linearGradient><path d="M147.5,365.4l14.3,8.3c2.3,1.3,5.2-0.3,5.2-3V264l-22.2-12.8v109.6C144.9,362.7,145.9,364.5,147.5,365.4z" class="st10"/><linearGradient id="SVGID_8_" x1="107.184" x2="107.184" y1="223.05" y2="345.955" gradientUnits="userSpaceOnUse"><stop style="stop-color:#2beda7" offset="0"/><stop style="stop-color:#018afd" offset="1"/></linearGradient><path d="M98.7,337.2l14.3,8.3c2.3,1.3,5.2-0.3,5.2-3V235.9l-22.2-12.8v109.6C96.1,334.6,97.1,336.3,98.7,337.2z" class="st11"/></g><g><path d="M415.4,177l-22.2-12.8l-39.9,23l-26.6-15.4l34.7-20c2.3-1.3,2.3-4.7,0-6.1l-14.3-8.3 c-1.6-0.9-3.6-0.9-5.2,0L304.5,159l-26.6-15.4l34.7-20c2.3-1.3,2.3-4.7,0-6.1l-14.3-8.3c-1.6-0.9-3.6-0.9-5.2,0l-37.3,21.5 l-37.3-21.5c-1.6-0.9-3.6-0.9-5.2,0l-14.3,8.3c-2.3,1.3-2.3,4.7,0,6.1l194.3,112.2l22.2-12.8l-39.9-23L415.4,177z" class="st5"/><path d="M164.4,137.5l-14.3,8.3c-2.3,1.3-2.3,4.7,0,6.1L344.4,264l22.2-12.8L169.7,137.5 C168,136.6,166,136.6,164.4,137.5z" class="st5"/><polygon points="96.1 177 136 200 96.1 223.1 118.3 235.9 158.2 212.8 184.8 228.2 144.9 251.2 167.1 264 207 241 233.6 256.3 193.6 279.4 215.8 292.2 255.7 269.1 295.6 292.2 317.8 279.4 118.3 164.2" class="st5"/></g></g></g></g></svg>