<svg xmlns="http://www.w3.org/2000/svg" xmlns:xlink="http://www.w3.org/1999/xlink" style="enable-background:new 0 0 1092.4 233.7" x="0" y="0" version="1.1" viewBox="0 0 1092.4 233.7" xml:space="preserve"><style type="text/css">.st2{fill:#fff}.st3{fill:url(#SVGID_1_)}.st4{fill:url(#SVGID_2_)}.st5{fill:#2beda7}.st6{fill:url(#SVGID_3_)}.st7{fill:url(#SVGID_4_)}.st8{fill:url(#SVGID_5_)}.st9{fill:url(#SVGID_6_)}.st10{fill:url(#SVGID_7_)}.st11{fill:url(#SVGID_8_)}</style><g id="Layer_1"><g><path d="M300.7,164.6v-97c0-4.6,3.9-8.5,8.7-8.5c4.6,0,8.4,3.9,8.4,8.5v91.1h44.8c4.1,0,7.7,3.2,7.7,7.3 c0,4.3-3.6,7.7-7.7,7.7h-52.7C303.9,173.6,300.7,170.4,300.7,164.6z" class="st2"/><path d="M403.5,165.9V67.5c0-4.6,3.9-8.5,8.7-8.5c4.6,0,8.4,3.9,8.4,8.5v98.4c0,4.6-3.8,8.5-8.4,8.5 C407.4,174.5,403.5,170.5,403.5,165.9z" class="st2"/><path d="M538.7,170l-60.4-83.7v79.6c0,4.6-3.8,8.5-8.4,8.5c-4.8,0-8.7-3.9-8.7-8.5V70.3c0-6.1,4.9-11.3,11.3-11.3 c3.6,0,7,1.7,9,4.6l59.2,81.5V67.5c0-4.6,3.8-8.5,8.4-8.5c4.8,0,8.7,3.9,8.7,8.5v96.3c0,5.8-4.8,10.6-10.6,10.6 C543.7,174.5,540.6,172.9,538.7,170z" class="st2"/><path d="M683.5,166.3c0,4.4-3.4,8.2-7.8,8.2c-2.2,0-4.3-0.5-6-2.4l-43.3-47.6l-10.9,11.6v29.8c0,4.6-3.8,8.5-8.5,8.5 c-4.6,0-8.5-3.9-8.5-8.5V67.5c0-4.6,3.9-8.5,8.5-8.5c4.8,0,8.5,3.9,8.5,8.5v49.1l50.1-55.1c1.7-1.9,3.8-2.6,6-2.6 c4.3,0,8,3.4,8,7.8c0,2-0.5,3.9-2.2,5.5l-39.6,42.1l43.5,46.4C682.6,162.4,683.5,164.4,683.5,166.3z" class="st2"/><path d="M717.9,164.6V68.9c0-5.8,3.2-9,9.2-9h60.4c4.1,0,7.7,3.4,7.7,7.7c0,4.1-3.6,7.3-7.7,7.3H735v33.3h51.3 c4.1,0,7.7,3.2,7.7,7.3c0,4.3-3.6,7.7-7.7,7.7H735v35.5h52.5c4.1,0,7.7,3.2,7.7,7.3c0,4.3-3.6,7.7-7.7,7.7h-60.4 C721.2,173.6,717.9,170.4,717.9,164.6z" class="st2"/><path d="M915.7,166.6c0,3.6-3.2,7.8-8,7.8c-2.9,0-5.6-1.4-7.2-3.6l-28.5-41.1h-24v36.2c0,4.6-3.8,8.5-8.4,8.5 c-4.8,0-8.7-3.9-8.7-8.5v-97c0-5.8,3.2-9,9.2-9h38.7c21.7,0,36.5,14,36.5,35c0,19.1-11.9,30-25.4,32.7l24,33.8 C915,162.5,915.7,163.9,915.7,166.6z M848,114.8h28.6c12.3,0,21.1-8,21.1-20c0-11.9-8.9-20-21.1-20H848V114.8z" class="st2"/><path d="M951.7,164.6V68.9c0-5.8,3.2-9,9.2-9h31.4c35.5,0,59,24.2,59,57c0,32.9-23.5,56.8-59,56.8h-31.4 C954.9,173.6,951.7,170.4,951.7,164.6z M992.3,158.6c26.3,0,41.4-18.8,41.4-41.8c0-23.4-14.7-41.9-41.4-41.9h-23.5v83.7H992.3z" class="st2"/></g><g><g><linearGradient id="SVGID_1_" x1="239.749" x2="239.749" y1="43.139" y2="146.622" gradientUnits="userSpaceOnUse"><stop style="stop-color:#2beda7" offset="0"/><stop style="stop-color:#018afd" offset="1"/></linearGradient><polygon points="231.1 43.1 231.1 136.7 248.4 146.6 248.4 53.1" class="st3"/><linearGradient id="SVGID_2_" x1="8.642" x2="8.642" y1="43.142" y2="146.628" gradientUnits="userSpaceOnUse"><stop style="stop-color:#2beda7" offset="0"/><stop style="stop-color:#018afd" offset="1"/></linearGradient><polygon points="0 146.6 17.3 136.7 17.3 43.1 0 53.1" class="st4"/></g><g><polygon points="84.5 145.7 163.9 191.5 163.9 171.6 89.6 128.7 84.5 131.6 84.5 131.7" class="st5"/><path d="M168.4,218l-83.9-48.4v19.9l22.4,12.9L80,218c-1.8,1-1.8,3.7,0,4.7l13.2,7.6l31-17.9l31,17.9l13.2-7.6 C170.2,221.7,170.2,219.1,168.4,218z" class="st5"/></g><g><linearGradient id="SVGID_3_" x1="239.749" x2="239.749" y1="88.949" y2="184.549" gradientUnits="userSpaceOnUse"><stop style="stop-color:#2beda7" offset="0"/><stop style="stop-color:#018afd" offset="1"/></linearGradient><path d="M231.1,98.9v82.9c0,2.1,2.3,3.4,4.1,2.4l11.8-6.8c0.8-0.5,1.4-1.4,1.4-2.4V88.9L231.1,98.9z" class="st6"/><linearGradient id="SVGID_4_" x1="201.805" x2="201.805" y1="110.855" y2="206.455" gradientUnits="userSpaceOnUse"><stop style="stop-color:#2beda7" offset="0"/><stop style="stop-color:#018afd" offset="1"/></linearGradient><path d="M197.3,206.1l11.1-6.4c1.3-0.7,2-2.1,2-3.5v-85.3l-17.2,10v82.9C193.2,205.8,195.4,207.1,197.3,206.1z" class="st7"/><linearGradient id="SVGID_5_" x1="163.861" x2="163.861" y1="132.761" y2="230.35" gradientUnits="userSpaceOnUse"><stop style="stop-color:#2beda7" offset="0"/><stop style="stop-color:#018afd" offset="1"/></linearGradient><path d="M155.2,230.3l15.9-9.2c0.8-0.5,1.4-1.4,1.4-2.4v-86.1l-17.2,10V230.3z" class="st8"/><linearGradient id="SVGID_6_" x1="84.539" x2="84.539" y1="132.761" y2="230.348" gradientUnits="userSpaceOnUse"><stop style="stop-color:#2beda7" offset="0"/><stop style="stop-color:#018afd" offset="1"/></linearGradient><path d="M77.3,221.2l15.9,9.2v-87.6l-17.2-10v86.1C75.9,219.8,76.4,220.7,77.3,221.2z" class="st9"/><linearGradient id="SVGID_7_" x1="46.595" x2="46.595" y1="110.855" y2="206.455" gradientUnits="userSpaceOnUse"><stop style="stop-color:#2beda7" offset="0"/><stop style="stop-color:#018afd" offset="1"/></linearGradient><path d="M40,199.7l11.1,6.4c1.8,1,4.1-0.3,4.1-2.4v-82.9l-17.2-10v85.3C38,197.6,38.7,198.9,40,199.7z" class="st10"/><linearGradient id="SVGID_8_" x1="8.651" x2="8.651" y1="88.947" y2="184.548" gradientUnits="userSpaceOnUse"><stop style="stop-color:#2beda7" offset="0"/><stop style="stop-color:#018afd" offset="1"/></linearGradient><path d="M2.1,177.8l11.1,6.4c1.8,1,4.1-0.3,4.1-2.4V98.9L0,88.9v85.3C0,175.7,0.8,177,2.1,177.8z" class="st11"/></g><g><path d="M248.4,53.1l-17.3-10l-31,17.9l-20.7-11.9l27-15.6c1.8-1,1.8-3.7,0-4.7l-11.1-6.4c-1.3-0.7-2.8-0.7-4.1,0 l-29,16.7l-20.7-11.9l27-15.6c1.8-1,1.8-3.7,0-4.7l-11.1-6.4c-1.3-0.7-2.8-0.7-4.1,0l-29,16.7l-29-16.8c-1.3-0.7-2.8-0.7-4.1,0 L80,6.9c-1.8,1-1.8,3.7,0,4.7l151.1,87.3l17.2-10l-31-17.9L248.4,53.1z" class="st5"/><path d="M53.2,22.4L42,28.8c-1.8,1-1.8,3.7,0,4.7l151.1,87.3l17.3-10L57.3,22.4C56,21.7,54.4,21.7,53.2,22.4z" class="st5"/><polygon points="0 53.1 31.1 71 0 89 17.3 98.9 48.3 81 69 92.9 38 110.9 55.2 120.8 86.3 102.9 106.9 114.8 75.9 132.8 93.2 142.7 124.2 124.8 155.2 142.7 172.5 132.8 17.3 43.1" class="st5"/></g></g></g></svg>