<svg xmlns="http://www.w3.org/2000/svg" xmlns:xlink="http://www.w3.org/1999/xlink" style="enable-background:new 0 0 579 468" x="0" y="0" version="1.1" viewBox="0 0 579 468" xml:space="preserve"><style type="text/css">.st3{fill:url(#SVGID_1_)}.st4{fill:url(#SVGID_2_)}.st5{fill:#2beda7}.st6{fill:url(#SVGID_3_)}.st7{fill:url(#SVGID_4_)}.st8{fill:url(#SVGID_5_)}.st9{fill:url(#SVGID_6_)}.st10{fill:url(#SVGID_7_)}.st11{fill:url(#SVGID_8_)}</style><g id="Layer_1"><g><path d="M0,460v-79.1c0-3.8,3.2-7,7.1-7c3.8,0,6.8,3.2,6.8,7v74.3h36.6c3.3,0,6.3,2.6,6.3,6c0,3.5-2.9,6.3-6.3,6.3h-43 C2.6,467.3,0,464.7,0,460z"/><path d="M78.3,461.1v-80.3c0-3.8,3.2-7,7.1-7c3.8,0,6.8,3.2,6.8,7v80.3c0,3.8-3.1,7-6.8,7C81.5,468,78.3,464.8,78.3,461.1z"/><path d="M183.1,464.4l-49.2-68.3v65c0,3.8-3.1,7-6.8,7c-3.9,0-7.1-3.2-7.1-7v-78c0-5,4-9.2,9.2-9.2c2.9,0,5.7,1.4,7.4,3.8 l48.3,66.5v-63.3c0-3.8,3.1-7,6.8-7c3.9,0,7.1,3.2,7.1,7v78.6c0,4.7-3.9,8.6-8.6,8.6C187.1,468,184.6,466.8,183.1,464.4z"/><path d="M295.6,461.4c0,3.6-2.8,6.7-6.4,6.7c-1.8,0-3.5-0.4-4.9-1.9L249,427.3l-8.9,9.5v24.3c0,3.8-3.1,7-7,7c-3.8,0-7-3.2-7-7 v-80.3c0-3.8,3.2-7,7-7c3.9,0,7,3.2,7,7v40.1L281,376c1.4-1.5,3.1-2.1,4.9-2.1c3.5,0,6.5,2.8,6.5,6.4c0,1.7-0.4,3.2-1.8,4.5 l-32.3,34.4l35.5,37.8C294.9,458.2,295.6,459.8,295.6,461.4z"/><path d="M318.2,460v-78c0-4.7,2.6-7.4,7.5-7.4h49.2c3.3,0,6.3,2.8,6.3,6.3c0,3.3-2.9,6-6.3,6h-42.8v27.1H374c3.3,0,6.3,2.6,6.3,6 c0,3.5-2.9,6.3-6.3,6.3h-41.9v28.9h42.8c3.3,0,6.3,2.6,6.3,6c0,3.5-2.9,6.3-6.3,6.3h-49.2C320.8,467.3,318.2,464.7,318.2,460z"/><path d="M474,461.6c0,2.9-2.6,6.4-6.5,6.4c-2.4,0-4.6-1.1-5.8-2.9l-23.2-33.5h-19.6v29.5c0,3.8-3.1,7-6.8,7c-3.9,0-7.1-3.2-7.1-7 v-79.1c0-4.7,2.6-7.4,7.5-7.4h31.6c17.7,0,29.8,11.4,29.8,28.5c0,15.6-9.7,24.5-20.7,26.7l19.6,27.5 C473.4,458.3,474,459.4,474,461.6z M418.8,419.4h23.4c10,0,17.3-6.5,17.3-16.3c0-9.7-7.2-16.3-17.3-16.3h-23.4V419.4z"/><path d="M497.8,460v-78c0-4.7,2.6-7.4,7.5-7.4h25.6c28.9,0,48.1,19.8,48.1,46.5c0,26.8-19.2,46.3-48.1,46.3h-25.6 C500.4,467.3,497.8,464.7,497.8,460z M530.9,455.1c21.4,0,33.8-15.3,33.8-34.1c0-19.1-12-34.2-33.8-34.2h-19.2v68.3H530.9z"/></g><g><g><linearGradient id="SVGID_1_" x1="431.917" x2="431.917" y1="52.684" y2="178.946" gradientUnits="userSpaceOnUse"><stop style="stop-color:#2beda7" offset="0"/><stop style="stop-color:#018afd" offset="1"/></linearGradient><polygon points="421.4 52.7 421.4 166.8 442.4 178.9 442.4 64.8" class="st3"/><linearGradient id="SVGID_2_" x1="149.937" x2="149.937" y1="52.687" y2="178.953" gradientUnits="userSpaceOnUse"><stop style="stop-color:#2beda7" offset="0"/><stop style="stop-color:#018afd" offset="1"/></linearGradient><polygon points="139.4 179 160.5 166.8 160.5 52.7 139.4 64.8" class="st4"/></g><g><polygon points="242.5 177.8 339.3 233.7 339.3 209.4 248.7 157.1 242.5 160.7 242.5 160.7" class="st5"/><path d="M344.9,266.1L242.5,207v24.3l27.4,15.8l-32.9,19c-2.2,1.3-2.2,4.5,0,5.7l16.1,9.3l37.9-21.9l37.9,21.9 l16.1-9.3C347.1,270.6,347.1,267.4,344.9,266.1z" class="st5"/></g><g><linearGradient id="SVGID_3_" x1="431.917" x2="431.917" y1="108.577" y2="225.221" gradientUnits="userSpaceOnUse"><stop style="stop-color:#2beda7" offset="0"/><stop style="stop-color:#018afd" offset="1"/></linearGradient><path d="M421.4,120.7v101.2c0,2.6,2.8,4.2,5,2.9l14.4-8.3c1-0.6,1.7-1.7,1.7-2.9v-105L421.4,120.7z" class="st6"/><linearGradient id="SVGID_4_" x1="385.62" x2="385.62" y1="135.306" y2="251.95" gradientUnits="userSpaceOnUse"><stop style="stop-color:#2beda7" offset="0"/><stop style="stop-color:#018afd" offset="1"/></linearGradient><path d="M380.1,251.5l13.6-7.8c1.5-0.9,2.5-2.5,2.5-4.3v-104l-21,12.1v101.2C375.1,251.2,377.9,252.8,380.1,251.5z" class="st7"/><linearGradient id="SVGID_5_" x1="339.324" x2="339.324" y1="162.033" y2="281.104" gradientUnits="userSpaceOnUse"><stop style="stop-color:#2beda7" offset="0"/><stop style="stop-color:#018afd" offset="1"/></linearGradient><path d="M328.8,281.1l19.4-11.2c1-0.6,1.7-1.7,1.7-2.9V162l-21,12.2V281.1z" class="st8"/><linearGradient id="SVGID_6_" x1="242.541" x2="242.541" y1="162.033" y2="281.102" gradientUnits="userSpaceOnUse"><stop style="stop-color:#2beda7" offset="0"/><stop style="stop-color:#018afd" offset="1"/></linearGradient><path d="M233.7,269.9l19.4,11.2V174.2L232,162v105C232,268.2,232.7,269.3,233.7,269.9z" class="st9"/><linearGradient id="SVGID_7_" x1="196.245" x2="196.245" y1="135.305" y2="251.949" gradientUnits="userSpaceOnUse"><stop style="stop-color:#2beda7" offset="0"/><stop style="stop-color:#018afd" offset="1"/></linearGradient><path d="M188.2,243.7l13.6,7.8c2.2,1.3,5-0.3,5-2.9V147.5l-21-12.2v104C185.7,241.1,186.7,242.8,188.2,243.7z" class="st10"/><linearGradient id="SVGID_8_" x1="149.949" x2="149.949" y1="108.575" y2="225.219" gradientUnits="userSpaceOnUse"><stop style="stop-color:#2beda7" offset="0"/><stop style="stop-color:#018afd" offset="1"/></linearGradient><path d="M141.9,216.9l13.6,7.8c2.2,1.3,5-0.3,5-2.9V120.7l-21-12.2v104C139.4,214.4,140.4,216,141.9,216.9z" class="st11"/></g><g><path d="M442.4,64.8l-21-12.1l-37.9,21.9L358.3,60l32.9-19c2.2-1.3,2.2-4.5,0-5.7l-13.6-7.8c-1.5-0.9-3.4-0.9-5,0 l-35.4,20.4L312,33.3l32.9-19c2.2-1.3,2.2-4.5,0-5.7l-13.6-7.8c-1.5-0.9-3.4-0.9-5,0l-35.4,20.4L255.5,0.7c-1.5-0.9-3.4-0.9-5,0 L237,8.5c-2.2,1.3-2.2,4.5,0,5.7l184.4,106.5l21-12.1l-37.9-21.9L442.4,64.8z" class="st5"/><path d="M204.3,27.4l-13.6,7.8c-2.2,1.3-2.2,4.5,0,5.7l184.4,106.5l21-12.1L209.2,27.4 C207.7,26.5,205.8,26.5,204.3,27.4z" class="st5"/><polygon points="139.4 64.8 177.3 86.7 139.4 108.6 160.5 120.7 198.4 98.9 223.6 113.4 185.7 135.3 206.8 147.5 244.6 125.6 269.9 140.2 232 162 253.1 174.2 290.9 152.3 328.8 174.2 349.8 162 160.5 52.7" class="st5"/></g></g></g></svg>