<svg xmlns="http://www.w3.org/2000/svg" xmlns:xlink="http://www.w3.org/1999/xlink" style="enable-background:new 0 0 512 475" x="0" y="0" version="1.1" viewBox="0 0 512 475" xml:space="preserve"><style type="text/css">.st3{fill:url(#SVGID_1_)}.st4{fill:url(#SVGID_2_)}.st5{fill:#2beda7}.st6{fill:url(#SVGID_3_)}.st7{fill:url(#SVGID_4_)}.st8{fill:url(#SVGID_5_)}.st9{fill:url(#SVGID_6_)}.st10{fill:url(#SVGID_7_)}.st11{fill:url(#SVGID_8_)}</style><g id="Layer_1"><g><g><g><linearGradient id="SVGID_1_" x1="494.222" x2="494.222" y1="89.016" y2="302.353" gradientUnits="userSpaceOnUse"><stop style="stop-color:#2beda7" offset="0"/><stop style="stop-color:#018afd" offset="1"/></linearGradient><polygon points="476.4 89 476.4 281.8 512 302.4 512 109.6" class="st3"/><linearGradient id="SVGID_2_" x1="17.778" x2="17.778" y1="89.022" y2="302.366" gradientUnits="userSpaceOnUse"><stop style="stop-color:#2beda7" offset="0"/><stop style="stop-color:#018afd" offset="1"/></linearGradient><polygon points="0 302.4 35.6 281.8 35.6 89 0 109.6" class="st4"/></g><g><polygon points="174.2 300.5 337.8 394.9 337.8 353.8 184.7 265.4 174.2 271.5 174.2 271.5" class="st5"/><path d="M347.2,449.6l-172.9-99.8v41.1l46.2,26.7l-55.6,32.1c-3.7,2.2-3.7,7.6,0,9.7L192,475l64-36.9l64,36.9 l27.1-15.7C350.9,457.1,350.9,451.7,347.2,449.6z" class="st5"/></g><g><linearGradient id="SVGID_3_" x1="494.222" x2="494.222" y1="183.456" y2="380.542" gradientUnits="userSpaceOnUse"><stop style="stop-color:#2beda7" offset="0"/><stop style="stop-color:#018afd" offset="1"/></linearGradient><path d="M476.4,204v170.9c0,4.3,4.7,7,8.4,4.9l24.3-14.1c1.7-1,2.8-2.9,2.8-4.9V183.5L476.4,204z" class="st6"/><linearGradient id="SVGID_4_" x1="415.997" x2="415.997" y1="228.618" y2="425.704" gradientUnits="userSpaceOnUse"><stop style="stop-color:#2beda7" offset="0"/><stop style="stop-color:#018afd" offset="1"/></linearGradient><path d="M406.6,424.9l22.9-13.2c2.6-1.5,4.2-4.3,4.2-7.3V228.6l-35.6,20.5v170.9 C398.2,424.4,402.9,427.1,406.6,424.9z" class="st7"/><linearGradient id="SVGID_5_" x1="337.773" x2="337.773" y1="273.777" y2="474.964" gradientUnits="userSpaceOnUse"><stop style="stop-color:#2beda7" offset="0"/><stop style="stop-color:#018afd" offset="1"/></linearGradient><path d="M320,475l32.8-18.9c1.7-1,2.8-2.9,2.8-4.9V273.8L320,294.3V475z" class="st8"/><linearGradient id="SVGID_6_" x1="174.245" x2="174.245" y1="273.777" y2="474.961" gradientUnits="userSpaceOnUse"><stop style="stop-color:#2beda7" offset="0"/><stop style="stop-color:#018afd" offset="1"/></linearGradient><path d="M159.3,456.1L192,475V294.3l-35.6-20.5v177.4C156.5,453.2,157.5,455.1,159.3,456.1z" class="st9"/><linearGradient id="SVGID_7_" x1="96.021" x2="96.021" y1="228.616" y2="425.704" gradientUnits="userSpaceOnUse"><stop style="stop-color:#2beda7" offset="0"/><stop style="stop-color:#018afd" offset="1"/></linearGradient><path d="M82.4,411.7l22.9,13.2c3.7,2.2,8.4-0.5,8.4-4.9V249.1l-35.6-20.5v175.8C78.2,407.4,79.8,410.2,82.4,411.7z" class="st10"/><linearGradient id="SVGID_8_" x1="17.797" x2="17.797" y1="183.452" y2="380.54" gradientUnits="userSpaceOnUse"><stop style="stop-color:#2beda7" offset="0"/><stop style="stop-color:#018afd" offset="1"/></linearGradient><path d="M4.2,366.5l22.9,13.2c3.7,2.2,8.4-0.5,8.4-4.9V204L0,183.5v175.8C0,362.3,1.6,365,4.2,366.5z" class="st11"/></g><g><path d="M512,109.6L476.4,89l-64,36.9l-42.6-24.6l55.6-32.1c3.7-2.2,3.7-7.6,0-9.7l-22.9-13.2 c-2.6-1.5-5.8-1.5-8.4,0l-59.8,34.5l-42.6-24.6l55.6-32.1c3.7-2.2,3.7-7.6,0-9.7L324.2,1.1c-2.6-1.5-5.8-1.5-8.4,0L256,35.7 L196.2,1.1c-2.6-1.5-5.8-1.5-8.4,0l-22.9,13.2c-3.7,2.2-3.7,7.6,0,9.7L476.4,204l35.6-20.5l-64-37L512,109.6z" class="st5"/><path d="M109.6,46.3L86.6,59.5c-3.7,2.2-3.7,7.6,0,9.7l311.6,179.9l35.6-20.5L118,46.3 C115.4,44.8,112.2,44.8,109.6,46.3z" class="st5"/><polygon points="0 109.6 64 146.5 0 183.5 35.6 204 99.6 167.1 142.2 191.7 78.2 228.6 113.8 249.2 177.8 212.2 220.4 236.8 156.4 273.8 192 294.3 256 257.4 320 294.3 355.6 273.8 35.6 89" class="st5"/></g></g></g></g></svg>