<svg xmlns="http://www.w3.org/2000/svg" xmlns:xlink="http://www.w3.org/1999/xlink" style="enable-background:new 0 0 635.5 511.6" x="0" y="0" version="1.1" viewBox="0 0 635.5 511.6" xml:space="preserve"><style type="text/css">.st2{fill:#fff}.st3{fill:url(#SVGID_1_)}.st4{fill:url(#SVGID_2_)}.st5{fill:#2beda7}.st6{fill:url(#SVGID_3_)}.st7{fill:url(#SVGID_4_)}.st8{fill:url(#SVGID_5_)}.st9{fill:url(#SVGID_6_)}.st10{fill:url(#SVGID_7_)}.st11{fill:url(#SVGID_8_)}</style><g id="Layer_1"><g><g><path d="M12.2,501.7V418c0-4,3.4-7.4,7.5-7.4c4,0,7.2,3.4,7.2,7.4v78.6h38.7c3.5,0,6.6,2.8,6.6,6.3 c0,3.7-3.1,6.6-6.6,6.6H20.1C15,509.5,12.2,506.7,12.2,501.7z" class="st2"/><path d="M95,502.9V418c0-4,3.4-7.4,7.5-7.4c4,0,7.2,3.4,7.2,7.4v84.9c0,4-3.2,7.4-7.2,7.4 C98.4,510.2,95,506.9,95,502.9z" class="st2"/><path d="M205.8,506.4l-52.1-72.2v68.7c0,4-3.2,7.4-7.2,7.4c-4.1,0-7.5-3.4-7.5-7.4v-82.5c0-5.3,4.3-9.7,9.7-9.7 c3.1,0,6,1.5,7.8,4l51.1,70.3V418c0-4,3.2-7.4,7.2-7.4c4.1,0,7.5,3.4,7.5,7.4v83.1c0,5-4.1,9.1-9.1,9.1 C210.1,510.2,207.4,508.9,205.8,506.4z" class="st2"/><path d="M324.9,503.2c0,3.8-2.9,7.1-6.8,7.1c-1.9,0-3.7-0.4-5.2-2.1l-37.4-41l-9.4,10v25.7c0,4-3.2,7.4-7.4,7.4 c-4,0-7.4-3.4-7.4-7.4V418c0-4,3.4-7.4,7.4-7.4c4.1,0,7.4,3.4,7.4,7.4v42.4l43.3-47.5c1.5-1.6,3.2-2.2,5.1-2.2 c3.7,0,6.9,2.9,6.9,6.8c0,1.8-0.4,3.4-1.9,4.7l-34.1,36.3l37.5,40C324.1,499.8,324.9,501.6,324.9,503.2z" class="st2"/><path d="M348.7,501.7v-82.5c0-5,2.8-7.8,7.9-7.8h52.1c3.5,0,6.6,2.9,6.6,6.6c0,3.5-3.1,6.3-6.6,6.3h-45.3V453h44.3 c3.5,0,6.6,2.8,6.6,6.3c0,3.7-3.1,6.6-6.6,6.6h-44.3v30.6h45.3c3.5,0,6.6,2.8,6.6,6.3c0,3.7-3.1,6.6-6.6,6.6h-52.1 C351.5,509.5,348.7,506.7,348.7,501.7z" class="st2"/><path d="M513.5,503.5c0,3.1-2.8,6.8-6.9,6.8c-2.5,0-4.9-1.2-6.2-3.1l-24.6-35.5h-20.7v31.2c0,4-3.2,7.4-7.2,7.4 c-4.1,0-7.5-3.4-7.5-7.4v-83.7c0-5,2.8-7.8,7.9-7.8h33.4c18.7,0,31.5,12.1,31.5,30.2c0,16.5-10.3,25.9-21.9,28.2l20.7,29.1 C512.9,500,513.5,501.1,513.5,503.5z M455.1,458.8h24.7c10.6,0,18.2-6.9,18.2-17.2c0-10.3-7.7-17.2-18.2-17.2h-24.7V458.8z" class="st2"/><path d="M538.7,501.7v-82.5c0-5,2.8-7.8,7.9-7.8h27.1c30.6,0,50.9,20.9,50.9,49.1c0,28.4-20.3,49-50.9,49h-27.1 C541.5,509.5,538.7,506.7,538.7,501.7z M573.7,496.6c22.7,0,35.8-16.2,35.8-36c0-20.2-12.7-36.2-35.8-36.2h-20.3v72.2H573.7z" class="st2"/></g><g><g><linearGradient id="SVGID_1_" x1="469.022" x2="469.022" y1="70.896" y2="204.451" gradientUnits="userSpaceOnUse"><stop style="stop-color:#2beda7" offset="0"/><stop style="stop-color:#018afd" offset="1"/></linearGradient><polygon points="457.9 70.9 457.9 191.6 480.2 204.5 480.2 83.8" class="st3"/><linearGradient id="SVGID_2_" x1="170.755" x2="170.755" y1="70.899" y2="204.459" gradientUnits="userSpaceOnUse"><stop style="stop-color:#2beda7" offset="0"/><stop style="stop-color:#018afd" offset="1"/></linearGradient><polygon points="159.6 204.5 181.9 191.6 181.9 70.9 159.6 83.8" class="st4"/></g><g><polygon points="268.7 203.3 371.1 262.4 371.1 236.7 275.2 181.3 268.7 185.1 268.7 185.1" class="st5"/><path d="M377,296.6l-108.2-62.5v25.7l28.9,16.7l-34.8,20.1c-2.3,1.4-2.3,4.7,0,6.1l17,9.8l40.1-23.1l40.1,23.1 l17-9.8C379.3,301.3,379.3,298,377,296.6z" class="st5"/></g><g><linearGradient id="SVGID_3_" x1="469.022" x2="469.022" y1="130.018" y2="253.399" gradientUnits="userSpaceOnUse"><stop style="stop-color:#2beda7" offset="0"/><stop style="stop-color:#018afd" offset="1"/></linearGradient><path d="M457.9,142.9v107c0,2.7,2.9,4.4,5.3,3l15.2-8.8c1.1-0.6,1.8-1.8,1.8-3V130L457.9,142.9z" class="st6"/><linearGradient id="SVGID_4_" x1="420.051" x2="420.051" y1="158.29" y2="281.672" gradientUnits="userSpaceOnUse"><stop style="stop-color:#2beda7" offset="0"/><stop style="stop-color:#018afd" offset="1"/></linearGradient><path d="M414.2,281.2l14.4-8.3c1.6-0.9,2.6-2.7,2.6-4.6V158.3l-22.3,12.9v107C408.9,280.9,411.8,282.5,414.2,281.2z" class="st7"/><linearGradient id="SVGID_5_" x1="371.081" x2="371.081" y1="186.561" y2="312.51" gradientUnits="userSpaceOnUse"><stop style="stop-color:#2beda7" offset="0"/><stop style="stop-color:#018afd" offset="1"/></linearGradient><path d="M360,312.5l20.5-11.8c1.1-0.6,1.8-1.8,1.8-3V186.6L360,199.4V312.5z" class="st8"/><linearGradient id="SVGID_6_" x1="268.708" x2="268.708" y1="186.561" y2="312.508" gradientUnits="userSpaceOnUse"><stop style="stop-color:#2beda7" offset="0"/><stop style="stop-color:#018afd" offset="1"/></linearGradient><path d="M259.3,300.7l20.5,11.8V199.4l-22.3-12.9v111.1C257.6,298.9,258.2,300,259.3,300.7z" class="st9"/><linearGradient id="SVGID_7_" x1="219.738" x2="219.738" y1="158.289" y2="281.671" gradientUnits="userSpaceOnUse"><stop style="stop-color:#2beda7" offset="0"/><stop style="stop-color:#018afd" offset="1"/></linearGradient><path d="M211.2,272.9l14.4,8.3c2.3,1.4,5.3-0.3,5.3-3v-107l-22.3-12.9v110.1C208.6,270.2,209.6,272,211.2,272.9z" class="st10"/><linearGradient id="SVGID_8_" x1="170.767" x2="170.767" y1="130.016" y2="253.398" gradientUnits="userSpaceOnUse"><stop style="stop-color:#2beda7" offset="0"/><stop style="stop-color:#018afd" offset="1"/></linearGradient><path d="M162.3,244.6l14.4,8.3c2.3,1.4,5.3-0.3,5.3-3v-107L159.6,130v110.1C159.6,242,160.6,243.7,162.3,244.6z" class="st11"/></g><g><path d="M480.2,83.8l-22.3-12.8L417.8,94l-26.7-15.4l34.8-20.1c2.3-1.4,2.3-4.7,0-6.1l-14.4-8.3 c-1.6-0.9-3.6-0.9-5.3,0l-37.4,21.6l-26.7-15.4L377,30.3c2.3-1.4,2.3-4.7,0-6.1l-14.4-8.3c-1.6-0.9-3.6-0.9-5.3,0l-37.4,21.6 l-37.5-21.6c-1.6-0.9-3.6-0.9-5.3,0l-14.4,8.3c-2.3,1.4-2.3,4.7,0,6.1l195.1,112.6l22.3-12.9l-40.1-23.1L480.2,83.8z" class="st5"/><path d="M228.2,44.1l-14.4,8.3c-2.3,1.4-2.3,4.7,0,6.1l195.1,112.6l22.3-12.9L233.5,44.1 C231.9,43.2,229.9,43.2,228.2,44.1z" class="st5"/><polygon points="159.6 83.8 199.7 106.9 159.6 130 181.9 142.9 222 119.7 248.7 135.2 208.6 158.3 230.9 171.1 270.9 148 297.6 163.4 257.6 186.6 279.8 199.4 319.9 176.3 359.9 199.4 382.2 186.6 181.9 70.9" class="st5"/></g></g></g></g></svg>