<svg xmlns="http://www.w3.org/2000/svg" xmlns:xlink="http://www.w3.org/1999/xlink" style="enable-background:new 0 0 1092.4 233.7" x="0" y="0" version="1.1" viewBox="0 0 1092.4 233.7" xml:space="preserve"><style type="text/css">.st2{fill:#fff}.st65{font-family:&apos;ProximaSoft-Medium&apos;}.st66{font-size:170.5155px}.st67{letter-spacing:15}</style><g id="Layer_1"><text class="st2 st65 st66 st67" transform="matrix(1 0 0 1 288.065 172.0712)">LINKERD</text><g><g><polygon points="231.1 43.1 231.1 136.7 248.4 146.6 248.4 53.1" class="st2"/><polygon points="0 146.6 17.3 136.7 17.3 43.1 0 53.1" class="st2"/></g><g><polygon points="84.5 145.7 163.9 191.5 163.9 171.6 89.6 128.7 84.5 131.6 84.5 131.7" class="st2"/><path d="M168.4,218l-83.9-48.4v19.9l22.4,12.9L80,218c-1.8,1-1.8,3.7,0,4.7l13.2,7.6l31-17.9l31,17.9l13.2-7.6 C170.2,221.7,170.2,219.1,168.4,218z" class="st2"/></g><g><path d="M231.1,98.9v82.9c0,2.1,2.3,3.4,4.1,2.4l11.8-6.8c0.8-0.5,1.4-1.4,1.4-2.4V88.9L231.1,98.9z" class="st2"/><path d="M197.3,206.1l11.1-6.4c1.3-0.7,2-2.1,2-3.5v-85.3l-17.2,10v82.9C193.2,205.8,195.4,207.1,197.3,206.1z" class="st2"/><path d="M155.2,230.3l15.9-9.2c0.8-0.5,1.4-1.4,1.4-2.4v-86.1l-17.2,10V230.3z" class="st2"/><path d="M77.3,221.2l15.9,9.2v-87.6l-17.2-10v86.1C75.9,219.8,76.4,220.7,77.3,221.2z" class="st2"/><path d="M40,199.7l11.1,6.4c1.8,1,4.1-0.3,4.1-2.4v-82.9l-17.2-10v85.3C38,197.6,38.7,198.9,40,199.7z" class="st2"/><path d="M2.1,177.8l11.1,6.4c1.8,1,4.1-0.3,4.1-2.4V98.9L0,88.9v85.3C0,175.7,0.8,177,2.1,177.8z" class="st2"/></g><g><path d="M248.4,53.1l-17.3-10l-31,17.9l-20.7-11.9l27-15.6c1.8-1,1.8-3.7,0-4.7l-11.1-6.4c-1.3-0.7-2.8-0.7-4.1,0 l-29,16.7l-20.7-11.9l27-15.6c1.8-1,1.8-3.7,0-4.7l-11.1-6.4c-1.3-0.7-2.8-0.7-4.1,0l-29,16.7l-29-16.8c-1.3-0.7-2.8-0.7-4.1,0 L80,6.9c-1.8,1-1.8,3.7,0,4.7l151.1,87.3l17.2-10l-31-17.9L248.4,53.1z" class="st2"/><path d="M53.2,22.4L42,28.8c-1.8,1-1.8,3.7,0,4.7l151.1,87.3l17.3-10L57.3,22.4C56,21.7,54.4,21.7,53.2,22.4z" class="st2"/><polygon points="0 53.1 31.1 71 0 89 17.3 98.9 48.3 81 69 92.9 38 110.9 55.2 120.8 86.3 102.9 106.9 114.8 75.9 132.8 93.2 142.7 124.2 124.8 155.2 142.7 172.5 132.8 17.3 43.1" class="st2"/></g></g></g></svg>